<?xml version="1.0" standalone="no"?>
<!DOCTYPE svg PUBLIC "-//W3C//DTD SVG 20010904//EN"
 "http://www.w3.org/TR/2001/REC-SVG-20010904/DTD/svg10.dtd">
<svg version="1.0" xmlns="http://www.w3.org/2000/svg"
 width="884.000000pt" height="566.000000pt" viewBox="0 0 884.000000 566.000000"
 preserveAspectRatio="xMidYMid meet">

<g transform="translate(0.000000,566.000000) scale(0.100000,-0.100000)"
fill="#000000" stroke="none">
<path d="M0 2830 l0 -2830 4420 0 4420 0 0 2830 0 2830 -4420 0 -4420 0 0
-2830z m2460 1360 l0 -690 1504 0 c828 0 1507 -4 1510 -9 16 -25 -86 -326
-161 -476 -119 -238 -322 -488 -533 -658 -73 -59 -231 -162 -303 -199 l-58
-29 -77 41 c-321 173 -605 457 -781 780 -22 41 -41 78 -41 83 0 4 55 7 123 7
l122 0 33 -54 c125 -210 321 -410 539 -553 l82 -54 83 54 c289 186 539 486
658 787 l20 50 -1360 0 -1360 0 0 -235 0 -235 -110 0 -110 0 0 1040 0 1040
110 0 110 0 0 -690z m4140 -350 l0 -1040 -115 0 -115 0 0 465 0 465 -1522 2
-1523 3 -3 548 -2 547 1100 0 1100 0 0 -325 0 -325 -110 0 -110 0 0 215 0 215
-880 0 -880 0 0 -330 0 -330 1415 0 1415 0 0 465 0 465 115 0 115 0 0 -1040z
m-4462 -2 l2 -798 -110 0 -110 0 0 800 0 801 108 -3 107 -3 3 -797z m4782 2
l0 -800 -110 0 -110 0 0 800 0 800 110 0 110 0 0 -800z m-5112 -2 l2 -488
-110 0 -110 0 0 483 c0 266 3 487 7 491 4 4 52 5 107 4 l101 -3 3 -487z m5437
2 l0 -485 -107 -3 -108 -3 0 484 c0 266 3 487 7 491 4 4 52 5 107 4 l101 -3 0
-485z m-5760 -5 l0 -250 -110 0 -110 0 -3 253 -2 253 112 -3 113 -3 0 -250z
m6093 3 l-3 -253 -110 0 -110 0 -3 253 -2 252 115 0 115 0 -2 -252z m-5633
-2069 c109 -41 192 -130 230 -248 26 -79 18 -207 -17 -284 -37 -80 -114 -158
-191 -193 -56 -26 -72 -29 -172 -29 -99 0 -116 3 -168 27 -237 111 -301 431
-125 624 112 122 285 162 443 103z m4018 17 c105 -25 183 -98 194 -185 l6 -41
-102 0 -102 0 -11 30 c-12 37 -35 50 -82 50 -41 0 -76 -28 -76 -62 0 -38 39
-66 156 -108 177 -65 232 -126 222 -246 -7 -81 -48 -141 -127 -181 -56 -30
-72 -33 -146 -33 -102 0 -171 21 -226 68 -45 39 -78 100 -79 145 l0 27 100 0
c84 0 100 -2 100 -16 0 -28 56 -74 90 -74 86 0 121 72 60 124 -17 14 -63 35
-103 47 -178 53 -247 120 -247 242 0 157 178 259 373 213z m-4865 -313 l2
-313 126 0 125 0 -3 -72 -3 -73 -215 0 -215 0 -3 375 c-1 206 0 381 3 388 3 9
28 12 92 10 l88 -3 3 -312z m1647 288 c97 -43 144 -113 145 -214 0 -96 -42
-167 -123 -209 -26 -13 -37 -24 -33 -34 3 -8 40 -73 81 -144 41 -71 75 -134
75 -140 0 -7 -32 -10 -102 -8 l-103 3 -77 140 c-65 117 -82 141 -103 143 l-25
3 0 -146 0 -146 -92 3 -93 3 -3 375 c-1 206 0 381 3 389 4 11 41 13 203 9 176
-4 202 -7 247 -27z m733 -53 l3 -78 -141 0 -140 0 0 -75 0 -75 125 0 125 0 0
-75 0 -75 -125 0 -125 0 0 -80 0 -80 140 0 140 0 0 -80 0 -80 -235 0 -235 0 0
390 0 390 233 -2 232 -3 3 -77z m451 -185 c93 -230 107 -259 117 -240 7 12 53
126 104 252 51 127 97 236 102 243 7 8 43 12 114 12 l104 0 0 -390 0 -391 -92
3 -93 3 -3 220 -3 220 -83 -220 -83 -220 -75 -3 -76 -3 -26 68 c-14 37 -53
140 -85 228 l-60 160 -3 -225 -3 -225 -92 -3 -93 -3 0 384 c0 211 3 387 7 391
4 3 54 5 112 4 l104 -3 106 -262z m866 -123 l0 -385 -95 0 -95 0 -3 375 c-1
206 0 381 3 388 3 9 29 12 97 10 l93 -3 0 -385z m558 369 c51 -17 113 -72 139
-123 15 -29 21 -60 22 -106 1 -161 -109 -250 -311 -250 l-82 0 -3 -137 -3
-138 -92 -3 -93 -3 0 392 0 391 193 -5 c116 -3 207 -10 230 -18z m1117 -244
c6 -292 8 -303 78 -332 47 -19 116 -9 147 22 39 38 45 86 45 338 l0 238 93 -3
92 -3 0 -265 c0 -312 -6 -342 -85 -420 -62 -63 -135 -90 -240 -90 -140 0 -236
55 -291 166 -23 48 -24 57 -27 317 -2 148 -1 275 2 283 5 12 24 14 93 12 l88
-3 5 -260z m808 253 c5 -7 53 -121 107 -253 53 -132 100 -245 104 -252 3 -7
54 106 112 250 l105 262 110 0 109 0 0 -385 0 -385 -92 -3 -93 -3 -2 226 -3
226 -84 -226 -83 -226 -76 3 -77 3 -80 215 -80 214 -5 -214 -5 -215 -95 0 -95
0 -3 375 c-1 206 0 381 3 387 6 18 208 18 223 1z m-4534 -946 c63 -37 84 -132
44 -203 -53 -95 -206 -93 -251 4 -68 142 72 277 207 199z m1522 3 c24 -15 25
-18 10 -33 -13 -14 -19 -14 -41 -2 -52 28 -127 5 -112 -34 5 -14 28 -22 110
-40 71 -16 91 -94 36 -140 -50 -43 -156 -33 -199 19 -11 13 -10 18 6 30 17 12
21 11 36 -5 40 -43 138 -33 138 14 0 30 -18 41 -84 51 -77 11 -115 62 -85 116
25 48 129 61 185 24z m942 -1 c87 -56 82 -213 -9 -260 -46 -24 -131 -15 -165
17 -112 103 -31 285 116 263 19 -3 45 -12 58 -20z m522 8 c41 -20 48 -49 10
-44 -114 15 -115 15 -142 -12 -67 -68 -32 -176 58 -176 60 0 74 8 74 40 0 26
-4 29 -37 32 -30 2 -38 7 -38 23 0 18 8 20 63 23 l62 3 0 -59 c0 -74 -25 -103
-97 -109 -100 -10 -163 46 -163 143 0 85 65 154 145 154 17 0 46 -8 65 -18z
m-3597 -53 l39 -62 40 62 c34 51 45 61 70 61 l29 0 -53 -77 c-47 -70 -53 -85
-58 -143 -4 -58 -7 -65 -27 -68 -22 -3 -23 0 -23 58 0 56 -4 66 -48 133 -69
103 -67 97 -35 97 24 0 34 -10 66 -61z m977 -23 c0 -45 5 -97 11 -114 19 -54
102 -63 128 -13 6 11 11 63 11 115 0 96 0 96 25 96 25 0 25 0 25 -95 0 -60 -5
-108 -14 -130 -31 -73 -143 -88 -198 -26 -27 30 -28 35 -28 141 0 103 1 110
20 110 18 0 20 -7 20 -84z m654 74 c33 -12 61 -69 52 -104 -7 -28 -34 -60 -57
-68 -10 -4 -3 -17 24 -45 20 -21 37 -44 37 -51 0 -27 -40 -9 -84 38 -35 38
-54 50 -76 50 -27 0 -29 -2 -32 -47 -3 -40 -6 -48 -23 -48 -19 0 -20 8 -23
143 l-3 142 80 0 c44 0 91 -4 105 -10z m846 -110 l0 -120 76 0 c72 0 75 -1 72
-22 -3 -22 -7 -23 -98 -23 l-95 0 -3 143 -3 142 26 0 25 0 0 -120z m1634 -14
c33 -74 60 -138 60 -143 1 -4 -7 -9 -17 -11 -11 -2 -23 8 -35 27 -17 30 -19
31 -94 31 -76 0 -78 -1 -93 -30 -14 -28 -55 -43 -55 -21 0 5 28 71 61 145 57
124 64 136 88 136 24 0 31 -11 85 -134z m426 39 l75 -95 3 95 c3 94 3 95 27
95 l25 0 0 -139 c0 -89 -4 -142 -11 -146 -14 -9 -46 22 -116 112 l-58 74 -5
-93 c-5 -87 -6 -93 -27 -96 -23 -3 -23 -3 -23 142 0 182 5 185 110 51z"/>
<path d="M1697 1599 c-60 -32 -91 -89 -95 -175 -5 -87 9 -134 54 -184 61 -67
175 -79 254 -26 131 87 110 341 -33 395 -46 18 -137 13 -180 -10z"/>
<path d="M2488 1624 c-5 -4 -8 -47 -8 -96 l0 -88 81 0 c76 0 82 2 110 29 37
37 39 88 6 127 -21 24 -32 28 -103 32 -43 2 -82 1 -86 -4z"/>
<path d="M5120 1535 l0 -97 76 4 c69 3 79 6 100 31 30 35 32 95 5 128 -17 21
-30 24 -100 27 l-81 4 0 -97z"/>
<path d="M2615 798 c-34 -19 -44 -41 -45 -90 0 -69 30 -101 95 -101 64 0 95
32 95 99 0 37 -6 51 -29 75 -32 31 -79 38 -116 17z"/>
<path d="M5059 781 c-72 -72 -3 -200 94 -176 82 21 97 159 20 194 -43 20 -82
13 -114 -18z"/>
<path d="M3630 760 l0 -50 60 0 c48 0 61 4 70 19 14 28 13 38 -10 61 -15 15
-33 20 -70 20 l-50 0 0 -50z"/>
<path d="M6128 730 l-26 -60 54 0 c30 0 54 2 54 5 0 7 -49 115 -52 115 -2 0
-15 -27 -30 -60z"/>
</g>
</svg>
